<?xml version="1.0" encoding="UTF-8" standalone="no"?>
<svg
   version="1.0"
   id="Layer_1"
   x="0px"
   y="0px"
   width="100px"
   height="100px"
   viewBox="0 0 100 100"
   enable-background="new 0 0 100 100"
   xml:space="preserve"
   sodipodi:docname="sandwich-ham-meatball.svg"
   inkscape:version="1.2.2 (732a01da63, 2022-12-09)"
   xmlns:inkscape="http://www.inkscape.org/namespaces/inkscape"
   xmlns:sodipodi="http://sodipodi.sourceforge.net/DTD/sodipodi-0.dtd"
   xmlns="http://www.w3.org/2000/svg"
   xmlns:svg="http://www.w3.org/2000/svg"
   xmlns:rdf="http://www.w3.org/1999/02/22-rdf-syntax-ns#"
   xmlns:dc="http://purl.org/dc/elements/1.1/"><defs
   id="defs9" /><sodipodi:namedview
   id="namedview7"
   pagecolor="#ffffff"
   bordercolor="#666666"
   borderopacity="1.0"
   inkscape:showpageshadow="2"
   inkscape:pageopacity="0.0"
   inkscape:pagecheckerboard="0"
   inkscape:deskcolor="#d1d1d1"
   showgrid="false"
   inkscape:zoom="8.62"
   inkscape:cx="50"
   inkscape:cy="50"
   inkscape:window-width="1920"
   inkscape:window-height="1017"
   inkscape:window-x="1072"
   inkscape:window-y="425"
   inkscape:window-maximized="1"
   inkscape:current-layer="Layer_1" />
   <metadata
   id="metadata2">
      <rdf:RDF>
         <rdf:Description
   rdf:about="">
            <dc:title>
               <rdf:Alt>
                  <rdf:li
   xml:lang="x-default">Burger</rdf:li>
               </rdf:Alt>
            </dc:title>
            <dc:description>
               <rdf:Alt>
                  <rdf:li
   xml:lang="x-default" />
               </rdf:Alt>
            </dc:description>
            <dc:subject>
               <rdf:Bag>
                  <rdf:li>burger</rdf:li>
                  <rdf:li>food</rdf:li>
                  <rdf:li>fast</rdf:li>
                  <rdf:li>hamburger</rdf:li>
                  <rdf:li>meat</rdf:li>
                  <rdf:li>beef</rdf:li>
                  <rdf:li>cheeseburger</rdf:li>
                  <rdf:li>restaurant</rdf:li>
                  <rdf:li>cafe</rdf:li>
               </rdf:Bag>
            </dc:subject>
         </rdf:Description>
      </rdf:RDF>
   </metadata>
<path
   d="M88.151,43.334C89.297,41.366,90,39.108,90,36.667C90,21.94,72.09,10,50,10S10,21.94,10,36.667  c0,2.441,0.705,4.699,1.849,6.667C10.705,45.302,10,47.559,10,50c0,3.425,1.327,6.514,3.447,8.874  c-0.039,0.374-0.114,0.739-0.114,1.126c0,2.341,0.493,4.564,1.364,6.586C11.836,69.021,10,72.611,10,76.667  C10,84.03,15.97,90,23.333,90h53.333C84.03,90,90,84.03,90,76.667c0-4.056-1.836-7.646-4.697-10.081  c0.869-2.021,1.364-4.245,1.364-6.586c0-0.387-0.075-0.752-0.114-1.126C88.672,56.514,90,53.425,90,50  C90,47.559,89.297,45.302,88.151,43.334z M76.667,83.334H23.333c-3.677,0-6.667-2.992-6.667-6.667c0-1.794,0.739-3.398,1.903-4.59  c2.987,2.825,6.994,4.59,11.431,4.59c3.77,0,7.207-1.299,10-3.411c2.792,2.112,6.23,3.411,10,3.411s7.207-1.299,10-3.411  c2.793,2.112,6.23,3.411,10,3.411c4.437,0,8.444-1.765,11.433-4.59c1.162,1.191,1.9,2.796,1.9,4.59  C83.333,80.342,80.342,83.334,76.667,83.334z M20.518,63.021c0.91,0.198,1.847,0.313,2.816,0.313h10.394  c0.381,1.758,1.011,3.421,1.885,4.935C34.01,69.359,32.08,70,30,70C25.545,70,21.808,67.055,20.518,63.021z M40.615,63.334h13.112  c0.381,1.758,1.012,3.421,1.885,4.935C54.011,69.359,52.08,70,50,70C45.661,70,41.996,67.204,40.615,63.334z M60.615,63.334h16.052  c0.97,0,1.907-0.114,2.815-0.313C78.193,67.055,74.453,70,70,70C65.661,70,61.995,67.204,60.615,63.334z M76.667,56.667H23.333  c-3.677,0-6.667-2.991-6.667-6.667c0-0.596,0.104-1.165,0.251-1.714C18.828,49.343,20.995,50,23.333,50h53.333  c2.337,0,4.505-0.654,6.416-1.712c0.146,0.55,0.25,1.116,0.25,1.712C83.333,53.676,80.342,56.667,76.667,56.667z M76.667,43.334  H23.333c-3.677,0-6.667-2.99-6.667-6.667c0-8.008,8.34-15.085,19.976-18.244L33.333,30h6.934l3.706-12.975  c1.964-0.225,3.973-0.358,6.027-0.358c0.339,0,0.664,0.026,1.003,0.031L47.201,30h6.933l3.637-12.735  c2.271,0.34,4.453,0.823,6.526,1.434L61.067,30h6.934l2.553-8.931c7.721,3.7,12.779,9.365,12.779,15.598  C83.333,40.344,80.342,43.334,76.667,43.334z"
   id="path4"
   style="fill:#ffffff" />
</svg>
