<?xml version="1.0" encoding="UTF-8" standalone="no"?>
<!-- Generator: Adobe Illustrator 16.0.0, SVG Export Plug-In . SVG Version: 6.00 Build 0)  -->

<svg
   version="1.0"
   id="Layer_1"
   x="0px"
   y="0px"
   width="100px"
   height="100px"
   viewBox="0 0 100 100"
   enable-background="new 0 0 100 100"
   xml:space="preserve"
   sodipodi:docname="sandwich-lettuce.svg"
   inkscape:version="1.2.2 (732a01da63, 2022-12-09)"
   xmlns:inkscape="http://www.inkscape.org/namespaces/inkscape"
   xmlns:sodipodi="http://sodipodi.sourceforge.net/DTD/sodipodi-0.dtd"
   xmlns="http://www.w3.org/2000/svg"
   xmlns:svg="http://www.w3.org/2000/svg"><defs
   id="defs11" /><sodipodi:namedview
   id="namedview9"
   pagecolor="#ffffff"
   bordercolor="#666666"
   borderopacity="1.0"
   inkscape:showpageshadow="2"
   inkscape:pageopacity="0.0"
   inkscape:pagecheckerboard="0"
   inkscape:deskcolor="#d1d1d1"
   showgrid="false"
   inkscape:zoom="8.62"
   inkscape:cx="50"
   inkscape:cy="50"
   inkscape:window-width="1920"
   inkscape:window-height="1017"
   inkscape:window-x="1072"
   inkscape:window-y="425"
   inkscape:window-maximized="1"
   inkscape:current-layer="Layer_1" />
<path
   d="M90,70c0,3.685-2.985,6.667-6.667,6.667H16.667C12.985,76.667,10,73.682,10,70H90z"
   id="path2"
   style="fill:#ffffff" />
<path
   d="M90,56.296v7.037c-4.121,1.706-8.89,1.843-13.333,0c-4.443-1.842-9.213-1.705-13.334,0c-4.121,1.706-8.89,1.843-13.333,0  c-4.443-1.842-9.212-1.705-13.333,0c-4.121,1.706-8.891,1.843-13.334,0c-4.443-1.842-9.212-1.705-13.333,0v-7.037  c5.234-1.518,10.788-1.234,15.886,0.879c2.649,1.1,5.572,1.1,8.232,0c5.947-2.458,12.496-2.458,18.434,0  c2.653,1.104,5.573,1.097,8.232,0c5.951-2.461,12.504-2.458,18.435,0c2.656,1.104,5.576,1.097,8.232,0  C88.288,56.829,89.141,56.543,90,56.296z"
   id="path4"
   style="fill:#ffffff" />
<path
   d="M70,23.333c-3.646,0-7.054,0.993-10,2.698c-2.946-1.706-6.354-2.698-10-2.698s-7.058,0.993-10,2.698  c-2.942-1.706-6.354-2.698-10-2.698c-11.042,0-20,8.955-20,20V50h80v-6.667C90,32.288,81.042,23.333,70,23.333z M16.667,43.333  C16.667,35.97,22.637,30,30,30c4.922,0,9.173,2.698,11.484,6.667h7.356c-0.768-2.143-1.881-4.115-3.284-5.854  C46.953,30.319,48.435,30,50,30c4.919,0,9.173,2.698,11.484,6.667h7.356c-0.768-2.143-1.881-4.115-3.284-5.85  C66.953,30.319,68.435,30,70,30c7.36,0,13.333,5.97,13.333,13.333H16.667z"
   id="path6"
   style="fill:#ffffff" />
</svg>
