<?xml version="1.0" encoding="UTF-8" standalone="no"?>
<svg
   version="1.0"
   id="Layer_1"
   x="0px"
   y="0px"
   width="100px"
   height="100px"
   viewBox="0 0 100 100"
   enable-background="new 0 0 100 100"
   xml:space="preserve"
   sodipodi:docname="sandwich-ham.svg"
   inkscape:version="1.2.2 (732a01da63, 2022-12-09)"
   xmlns:inkscape="http://www.inkscape.org/namespaces/inkscape"
   xmlns:sodipodi="http://sodipodi.sourceforge.net/DTD/sodipodi-0.dtd"
   xmlns="http://www.w3.org/2000/svg"
   xmlns:svg="http://www.w3.org/2000/svg"
   xmlns:rdf="http://www.w3.org/1999/02/22-rdf-syntax-ns#"
   xmlns:dc="http://purl.org/dc/elements/1.1/"><defs
   id="defs9" /><sodipodi:namedview
   id="namedview7"
   pagecolor="#ffffff"
   bordercolor="#666666"
   borderopacity="1.0"
   inkscape:showpageshadow="2"
   inkscape:pageopacity="0.0"
   inkscape:pagecheckerboard="0"
   inkscape:deskcolor="#d1d1d1"
   showgrid="false"
   inkscape:zoom="8.62"
   inkscape:cx="50"
   inkscape:cy="50"
   inkscape:window-width="1920"
   inkscape:window-height="1017"
   inkscape:window-x="1072"
   inkscape:window-y="425"
   inkscape:window-maximized="1"
   inkscape:current-layer="Layer_1" />
   <metadata
   id="metadata2">
      <rdf:RDF>
         <rdf:Description
   rdf:about="">
            <dc:title>
               <rdf:Alt>
                  <rdf:li
   xml:lang="x-default" />
               </rdf:Alt>
            </dc:title>
            <dc:description>
               <rdf:Alt>
                  <rdf:li
   xml:lang="x-default" />
               </rdf:Alt>
            </dc:description>
            <dc:subject>
               <rdf:Bag>
                  <rdf:li>burger</rdf:li>
                  <rdf:li>food</rdf:li>
                  <rdf:li>fast</rdf:li>
                  <rdf:li>hamburger</rdf:li>
                  <rdf:li>meat</rdf:li>
                  <rdf:li>beef</rdf:li>
                  <rdf:li>cheeseburger</rdf:li>
                  <rdf:li>restaurant</rdf:li>
                  <rdf:li>cafe</rdf:li>
               </rdf:Bag>
            </dc:subject>
         </rdf:Description>
      </rdf:RDF>
   </metadata>
<path
   d="M86.667,56.666h-3.334v-6.667c3.682,0,6.667-2.985,6.667-6.667c0-11.045-17.91-20-40-20s-40,8.955-40,20  c0,3.682,2.985,6.667,6.667,6.667v6.667h-3.333c-1.843,0-3.333,1.49-3.333,3.333v3.333c0,7.363,5.97,13.334,13.333,13.334h53.333  C84.03,76.666,90,70.695,90,63.332v-3.333C90,58.156,88.509,56.666,86.667,56.666z M33.333,31.978v4.688H40v-5.98  c2.108-0.294,4.33-0.504,6.667-0.607v6.587h6.667v-6.587c2.338,0.103,4.558,0.313,6.667,0.607v5.98h6.667v-4.688  c10.494,2.694,16.666,7.607,16.666,11.354H16.667C16.667,39.585,22.837,34.672,33.333,31.978z M23.333,49.999h53.333v6.667H23.333  V49.999z M76.667,69.999H23.333c-3.675,0-6.667-2.991-6.667-6.667h66.667C83.333,67.008,80.342,69.999,76.667,69.999z"
   id="path4"
   style="fill:#ffffff" />
</svg>
